<?xml version="1.0" encoding="UTF-8"?>
<svg version="1.1" xmlns="http://www.w3.org/2000/svg" width="200" height="60">
<path d="M0 0 C2.64 0 5.28 0 8 0 C9.32 3.3 10.64 6.6 12 10 C14.09782787 7.90217213 14.6509396 6.6200793 15.625 3.875 C15.88539062 3.15054687 16.14578125 2.42609375 16.4140625 1.6796875 C16.70410156 0.84824219 16.70410156 0.84824219 17 0 C19.64 0 22.28 0 25 0 C24.34 2.97 23.68 5.94 23 9 C23.48952148 8.51104248 23.97904297 8.02208496 24.48339844 7.51831055 C28.00603652 5.39304025 31.27735601 5.62649799 35.265625 5.70703125 C36.05902283 5.71127609 36.85242065 5.71552094 37.66986084 5.71989441 C40.1969232 5.7366496 42.72317983 5.77429494 45.25 5.8125 C46.96613429 5.82755097 48.68228112 5.84123866 50.3984375 5.85351562 C54.59926746 5.88654265 58.79949725 5.93830235 63 6 C63 4.68 63 3.36 63 2 C66.465 1.505 66.465 1.505 70 1 C70 2.65 70 4.3 70 6 C71.65 6 73.3 6 75 6 C75.495 6.99 75.495 6.99 76 8 C76.99 7.34 77.98 6.68 79 6 C81.62890625 5.76953125 81.62890625 5.76953125 84.5625 5.8125 C85.53316406 5.81894531 86.50382812 5.82539063 87.50390625 5.83203125 C90 6 90 6 92 7 C92 4.69 92 2.38 92 0 C94.4178712 -0.10826289 96.83087556 -0.18739789 99.25 -0.25 C100.27287109 -0.30027344 100.27287109 -0.30027344 101.31640625 -0.3515625 C104.81504793 -0.41949729 106.62467601 -0.29299486 109.421875 1.890625 C111 4 111 4 112 6 C112.90363281 6 113.80726562 6 114.73828125 6 C119.15885417 6 123.57942708 6 128 6 C128.78375 5.97679687 129.5675 5.95359375 130.375 5.9296875 C131.24125 5.91164063 132.1075 5.89359375 133 5.875 C133.86625 5.85179687 134.7325 5.82859375 135.625 5.8046875 C138 6 138 6 141 8 C141.66 7.34 142.32 6.68 143 6 C145.27734375 5.734375 145.27734375 5.734375 147.9375 5.75 C148.81277344 5.74484375 149.68804687 5.7396875 150.58984375 5.734375 C153 6 153 6 156 8 C156.66 7.34 157.32 6.68 158 6 C160.3125 5.76953125 160.3125 5.76953125 163 5.8125 C164.3303125 5.82216797 164.3303125 5.82216797 165.6875 5.83203125 C168 6 168 6 170 7 C169.67 8.65 169.34 10.3 169 12 C167.35 12 165.7 12 164 12 C165.175625 12.556875 165.175625 12.556875 166.375 13.125 C169.64676331 15.4619738 170.19098903 17.11674735 171 21 C170 24 170 24 167 26 C164.66015625 26.23046875 164.66015625 26.23046875 162.0625 26.1875 C161.20785156 26.18105469 160.35320312 26.17460938 159.47265625 26.16796875 C157 26 157 26 154.74609375 25.42578125 C154.16988281 25.28527344 153.59367188 25.14476563 153 25 C152.67 25.33 152.34 25.66 152 26 C147.90428912 26.33686742 143.79528035 26.32504358 139.6875 26.375 C137.9559668 26.43107422 137.9559668 26.43107422 136.18945312 26.48828125 C127.72068852 26.57675354 127.72068852 26.57675354 124.22265625 23.77734375 C122.97711147 20.9480072 122.56724183 19.24869941 122.75 16.1875 C122.78609375 15.39730469 122.8221875 14.60710938 122.859375 13.79296875 C122.90578125 13.20128906 122.9521875 12.60960937 123 12 C122.01 12.33 121.02 12.66 120 13 C119.67 17.29 119.34 21.58 119 26 C116.36 26 113.72 26 111 26 C110.505 20.06 110.505 20.06 110 14 C109.01 14.66 108.02 15.32 107 16 C104.66800612 16.07905064 102.33167378 16.08798769 100 16 C100 19.3 100 22.6 100 26 C96.3957837 26.02691946 92.79176757 26.04680002 89.1875 26.0625 C87.65125977 26.07506836 87.65125977 26.07506836 86.08398438 26.08789062 C84.60961914 26.09272461 84.60961914 26.09272461 83.10546875 26.09765625 C82.19949951 26.10289307 81.29353027 26.10812988 80.36010742 26.11352539 C78 26 78 26 75 25 C74.505 25.495 74.505 25.495 74 26 C72.00390625 26.16796875 72.00390625 26.16796875 69.5625 26.1875 C68.35787109 26.20876953 68.35787109 26.20876953 67.12890625 26.23046875 C65 26 65 26 63 24 C62.8046875 20.9609375 62.8046875 20.9609375 62.875 17.375 C62.89304688 16.18648437 62.91109375 14.99796875 62.9296875 13.7734375 C62.95289063 12.85820312 62.97609375 11.94296875 63 11 C62.01 11 61.02 11 60 11 C60 15.95 60 20.9 60 26 C57.69 26 55.38 26 53 26 C52.67 21.38 52.34 16.76 52 12 C50.12175109 13.87824891 50.60897603 17.03935276 50.4375 19.5625 C50.35371094 20.76003906 50.26992188 21.95757812 50.18359375 23.19140625 C50.09271484 24.58166016 50.09271484 24.58166016 50 26 C45.9170404 26.14518182 41.83474359 26.23403347 37.75 26.3125 C36.59113281 26.35439453 35.43226562 26.39628906 34.23828125 26.43945312 C25.69736937 26.56287671 25.69736937 26.56287671 22.265625 23.79296875 C21 21 21 21 20 16 C18.68 19.3 17.36 22.6 16 26 C13.69 26 11.38 26 9 26 C7.49172203 22.23242503 5.99481006 18.46043651 4.5 14.6875 C4.07074219 13.61564453 3.64148438 12.54378906 3.19921875 11.43945312 C2.59013672 9.89741211 2.59013672 9.89741211 1.96875 8.32421875 C1.40317383 6.9024231 1.40317383 6.9024231 0.82617188 5.4519043 C0 3 0 3 0 0 Z M100 5 C100 6.98 100 8.96 100 11 C100.99 10.67 101.98 10.34 103 10 C102.67 8.35 102.34 6.7 102 5 C101.34 5 100.68 5 100 5 Z M40 9 C39.94589313 10.77049689 39.90715881 12.54146849 39.875 14.3125 C39.85179687 15.29863281 39.82859375 16.28476562 39.8046875 17.30078125 C39.79317361 20.22406527 39.79317361 20.22406527 42 23 C42.05410687 21.22950311 42.09284119 19.45853151 42.125 17.6875 C42.14820313 16.70136719 42.17140625 15.71523438 42.1953125 14.69921875 C42.20682639 11.77593473 42.20682639 11.77593473 40 9 Z M74 9 C75 11 75 11 75 11 Z M21 10 C22 12 22 12 22 12 Z M30 11 C28.5216774 13.95664519 28.93967217 16.74229737 29 20 C29.99 20.495 29.99 20.495 31 21 C32.14352916 18.71294169 32.10334439 17.40735238 32.0625 14.875 C32.041875 13.59625 32.02125 12.3175 32 11 C31.34 11 30.68 11 30 11 Z M70 11 C70 14.3 70 17.6 70 21 C70.99 20.67 71.98 20.34 73 20 C73.33 17.03 73.66 14.06 74 11 C72.68 11 71.36 11 70 11 Z M83 11 C80.43312633 14.8503105 81.16711276 16.58569763 82 21 C82.66 20.67 83.32 20.34 84 20 C84.46651207 17.87423218 84.46651207 17.87423218 84.625 15.4375 C84.69976562 14.61121094 84.77453125 13.78492188 84.8515625 12.93359375 C84.90054688 12.29550781 84.94953125 11.65742188 85 11 C84.34 11 83.68 11 83 11 Z M132 11 C132 14 132 14 132 14 Z M154 10 C154 10.66 154 11.32 154 12 C151.03 11.505 151.03 11.505 148 11 C149.28965176 12.37562854 150.62689293 13.70766393 152 15 C152.66 15 153.32 15 154 15 C154.061875 15.61875 154.12375 16.2375 154.1875 16.875 C154.82965018 19.23903023 154.82965018 19.23903023 157.375 20.3125 C160.08080211 21.27654806 160.08080211 21.27654806 163 20 C161.576875 19.195625 161.576875 19.195625 160.125 18.375 C156.63260408 15.7207791 155.95264124 14.19162145 155 10 C154.67 10 154.34 10 154 10 Z M140 14 C139.62875 14.45375 139.2575 14.9075 138.875 15.375 C136.45735315 17.47029394 134.04569398 18.12013285 131 19 C131.33 19.66 131.66 20.32 132 21 C134.97 21 137.94 21 141 21 C141 20.34 141 19.68 141 19 C141.8971875 19.5259375 141.8971875 19.5259375 142.8125 20.0625 C145.10813214 21.33304698 145.10813214 21.33304698 148 20 C147.05125 19.38125 146.1025 18.7625 145.125 18.125 C142 16 142 16 140 14 Z " fill="#C32762" transform="translate(11,11)"/>
<path d="M0 0 C2.3925 -0.0825 4.785 -0.165 7.25 -0.25 C7.99668945 -0.28641602 8.74337891 -0.32283203 9.51269531 -0.36035156 C12.95448456 -0.41774557 14.68035948 -0.24952582 17.421875 1.890625 C19 4 19 4 20 6 C20.90363281 6 21.80726562 6 22.73828125 6 C27.15885417 6 31.57942708 6 36 6 C36.78375 5.97679687 37.5675 5.95359375 38.375 5.9296875 C39.24125 5.91164063 40.1075 5.89359375 41 5.875 C41.86625 5.85179687 42.7325 5.82859375 43.625 5.8046875 C46 6 46 6 49 8 C49.66 7.34 50.32 6.68 51 6 C53.27734375 5.734375 53.27734375 5.734375 55.9375 5.75 C56.81277344 5.74484375 57.68804687 5.7396875 58.58984375 5.734375 C61 6 61 6 64 8 C64.66 7.34 65.32 6.68 66 6 C68.3125 5.76953125 68.3125 5.76953125 71 5.8125 C72.3303125 5.82216797 72.3303125 5.82216797 73.6875 5.83203125 C76 6 76 6 78 7 C77.67 8.65 77.34 10.3 77 12 C75.35 12 73.7 12 72 12 C73.175625 12.556875 73.175625 12.556875 74.375 13.125 C77.64676331 15.4619738 78.19098903 17.11674735 79 21 C78 24 78 24 75 26 C72.66015625 26.23046875 72.66015625 26.23046875 70.0625 26.1875 C69.20785156 26.18105469 68.35320312 26.17460938 67.47265625 26.16796875 C65 26 65 26 62.74609375 25.42578125 C62.16988281 25.28527344 61.59367187 25.14476563 61 25 C60.505 25.495 60.505 25.495 60 26 C55.90428912 26.33686742 51.79528035 26.32504358 47.6875 26.375 C45.9559668 26.43107422 45.9559668 26.43107422 44.18945312 26.48828125 C35.72068852 26.57675354 35.72068852 26.57675354 32.22265625 23.77734375 C30.97711147 20.9480072 30.56724183 19.24869941 30.75 16.1875 C30.78609375 15.39730469 30.8221875 14.60710938 30.859375 13.79296875 C30.92898437 12.90544922 30.92898437 12.90544922 31 12 C30.01 12.33 29.02 12.66 28 13 C27.67 17.29 27.34 21.58 27 26 C24.36 26 21.72 26 19 26 C18.67 22.04 18.34 18.08 18 14 C17.01 14.66 16.02 15.32 15 16 C12.66800612 16.07905064 10.33167378 16.08798769 8 16 C8 19.3 8 22.6 8 26 C5.36 26 2.72 26 0 26 C0 17.42 0 8.84 0 0 Z M8 5 C8 6.98 8 8.96 8 11 C8.99 10.67 9.98 10.34 11 10 C10.67 8.35 10.34 6.7 10 5 C9.34 5 8.68 5 8 5 Z M40 11 C40 14 40 14 40 14 Z M62 10 C62 10.66 62 11.32 62 12 C59.03 11.505 59.03 11.505 56 11 C57.28965176 12.37562854 58.62689293 13.70766393 60 15 C60.66 15 61.32 15 62 15 C62.061875 15.61875 62.12375 16.2375 62.1875 16.875 C62.82965018 19.23903023 62.82965018 19.23903023 65.375 20.3125 C68.08080211 21.27654806 68.08080211 21.27654806 71 20 C69.576875 19.195625 69.576875 19.195625 68.125 18.375 C64.63260408 15.7207791 63.95264124 14.19162145 63 10 C62.67 10 62.34 10 62 10 Z M48 14 C47.62875 14.45375 47.2575 14.9075 46.875 15.375 C44.45735315 17.47029394 42.04569398 18.12013285 39 19 C39.33 19.66 39.66 20.32 40 21 C42.97 21 45.94 21 49 21 C49 20.34 49 19.68 49 19 C49.8971875 19.5259375 49.8971875 19.5259375 50.8125 20.0625 C53.10813214 21.33304698 53.10813214 21.33304698 56 20 C55.05125 19.38125 54.1025 18.7625 53.125 18.125 C50 16 50 16 48 14 Z " fill="#7E7E7E" transform="translate(103,11)"/>
<path d="M0 0 C1.32 0 2.64 0 4 0 C4 0.66 4 1.32 4 2 C4.66 2 5.32 2 6 2 C6 1.34 6 0.68 6 0 C14.58 0 23.16 0 32 0 C32 0.99 32 1.98 32 3 C32.3062434 4.33981486 32.63451555 5.67511887 33 7 C34.32 4.69 35.64 2.38 37 0 C37.804375 0.185625 38.60875 0.37125 39.4375 0.5625 C40.283125 0.706875 41.12875 0.85125 42 1 C42.33 0.67 42.66 0.34 43 0 C45.82107289 -0.07354205 48.61728874 -0.0922829 51.4375 -0.0625 C52.22705078 -0.05798828 53.01660156 -0.05347656 53.83007812 -0.04882812 C55.88674653 -0.03655474 57.94337944 -0.01864007 60 0 C61.55797863 0 63.11595924 -0.01324641 64.67382812 -0.03173828 C68.28251927 -0.07319939 71.89116459 -0.09919627 75.5 -0.125 C76.76199219 -0.14175781 78.02398437 -0.15851562 79.32421875 -0.17578125 C81.12826172 -0.18544922 81.12826172 -0.18544922 82.96875 -0.1953125 C84.07669922 -0.20578613 85.18464844 -0.21625977 86.32617188 -0.22705078 C89 0 89 0 91 2 C91.3125 5 91.3125 5 91 8 C87.86261866 10.09158756 87.1826402 10.24391133 83.62109375 10.1953125 C82.36329102 10.18564453 82.36329102 10.18564453 81.08007812 10.17578125 C80.20802734 10.15902344 79.33597656 10.14226563 78.4375 10.125 C77.56158203 10.11597656 76.68566406 10.10695313 75.78320312 10.09765625 C74.16327514 10.08019744 72.54338265 10.05864128 70.92358398 10.03173828 C69.61585786 10.01016138 68.30790412 10 67 10 C44.33333333 10 21.66666667 10 -1 10 C-0.67 6.7 -0.34 3.4 0 0 Z M46 3 C46 4.32 46 5.64 46 7 C46.99 7 47.98 7 49 7 C49 5.68 49 4.36 49 3 C48.01 3 47.02 3 46 3 Z M13 4 C14 6 14 6 14 6 Z " fill="#D0CFCF" transform="translate(76,41)"/>
<path d="M0 0 C6.6 0 13.2 0 20 0 C20.33 1.65 20.66 3.3 21 5 C21.32742187 4.18273438 21.65484375 3.36546875 21.9921875 2.5234375 C24 0 24 0 27.7578125 -0.5234375 C29.21418662 -0.49956251 30.67031831 -0.44914019 32.125 -0.375 C33.23681641 -0.35373047 33.23681641 -0.35373047 34.37109375 -0.33203125 C39.81731673 -0.18268327 39.81731673 -0.18268327 41 1 C41.14115161 3.67058851 41.04247107 6.32432238 41 9 C36.03579466 10.32378809 31.09133147 10.08110086 26 10 C25.34 10 24.68 10 24 10 C17 10 10 10 3 10 C0.96564469 6.27034861 0 4.33094958 0 0 Z " fill="#D0D0D0" transform="translate(33,41)"/>
</svg>
