<?xml version="1.0" encoding="UTF-8"?>
<svg version="1.1" xmlns="http://www.w3.org/2000/svg" width="64" height="64">
<path d="M0 0 C8.51287877 4.54125689 13.71407261 10.41030424 17.125 19.4375 C19.04863741 26.36259468 17.93014157 34.14300997 15.15625 40.7421875 C10.89725838 48.1378689 4.27618694 53.86344097 -3.875 56.4375 C-13.15071528 58.50456015 -21.72759559 56.80302987 -29.8359375 51.91796875 C-36.1932149 47.30224435 -39.45595594 41.46865623 -41.5625 34 C-42.59491246 25.53421782 -41.99186455 17.84672303 -36.953125 10.71875 C-27.72106833 -0.10504057 -13.98594564 -5.72152322 0 0 Z " fill="#530029" transform="translate(43.875,3.5625)"/>
<path d="M0 0 C8.51287877 4.54125689 13.71407261 10.41030424 17.125 19.4375 C19.04863741 26.36259468 17.93014157 34.14300997 15.15625 40.7421875 C10.89725838 48.1378689 4.27618694 53.86344097 -3.875 56.4375 C-13.15071528 58.50456015 -21.72759559 56.80302987 -29.8359375 51.91796875 C-36.1932149 47.30224435 -39.45595594 41.46865623 -41.5625 34 C-42.59491246 25.53421782 -41.99186455 17.84672303 -36.953125 10.71875 C-27.72106833 -0.10504057 -13.98594564 -5.72152322 0 0 Z M-32.875 9.4375 C-38.73538788 17.58136327 -39.79929912 24.39918164 -38.875 34.4375 C-36.31173797 43.3250721 -30.38170272 48.69813168 -22.6875 53.375 C-15.33816798 55.4231745 -6.80063834 55.74489769 0.28515625 52.5390625 C8.1795928 47.81245718 12.26038845 42.03133464 15.125 33.4375 C15.84573672 25.75888189 15.0923743 18.656267 10.578125 12.23828125 C4.11055177 4.49722568 -2.32017514 1.17955564 -12.1875 0.0625 C-20.12911303 0.87012166 -27.3381022 3.6369404 -32.875 9.4375 Z " fill="#720070" transform="translate(43.875,3.5625)"/>
<path d="M0 0 C3.87306363 0.05001086 5.07162507 0.25958093 8.4375 2.4375 C10.25 5.375 10.25 5.375 10.3125 9 C9.12647735 12.76736607 8.60678105 13.49633094 5.25 15.375 C2.234375 15.66796875 2.234375 15.66796875 -1 15.5625 C-2.61648437 15.52189453 -2.61648437 15.52189453 -4.265625 15.48046875 C-5.08546875 15.44566406 -5.9053125 15.41085938 -6.75 15.375 C-7.74 18.675 -8.73 21.975 -9.75 25.375 C-11.4 25.705 -13.05 26.035 -14.75 26.375 C-14.14038113 22.90971696 -13.24835807 19.80965819 -11.9375 16.546875 C-11.58429687 15.66515625 -11.23109375 14.7834375 -10.8671875 13.875 C-10.49851562 12.9675 -10.12984375 12.06 -9.75 11.125 C-9.38132812 10.20203125 -9.01265625 9.2790625 -8.6328125 8.328125 C-5.36013803 0.20615915 -5.36013803 0.20615915 0 0 Z " fill="#F9F7F9" transform="translate(41.75,19.625)"/>
<path d="M0 0 C1.27230469 0.00902344 2.54460938 0.01804688 3.85546875 0.02734375 C5.31919922 0.04474609 5.31919922 0.04474609 6.8125 0.0625 C7.3075 1.5475 7.3075 1.5475 7.8125 3.0625 C6.70455078 2.99289063 6.70455078 2.99289063 5.57421875 2.921875 C-3.34180636 2.60465937 -10.4090414 4.15387302 -18.0625 8.8125 C-24.8414804 15.99024395 -26.61790806 22.65939929 -26.52734375 32.41015625 C-25.85724502 39.61179206 -22.87904753 44.86488054 -17.5 49.625 C-15.74787427 50.99639774 -14.17905854 52.06672073 -12.1875 53.0625 C-12.1875 54.0525 -12.1875 55.0425 -12.1875 56.0625 C-18.04461502 54.28761666 -22.48499349 50.79087582 -25.7109375 45.62109375 C-30.02284198 37.25898997 -31.41313649 29.43527145 -29.25 20.1875 C-26.74588788 12.53342146 -20.96159196 6.1604408 -13.8125 2.5 C-8.81362972 0.51768937 -5.37478956 -0.04931 0 0 Z " fill="#9E0032" transform="translate(32.1875,1.9375)"/>
<path d="M0 0 C1.65 0 3.3 0 5 0 C5.34933594 0.85464844 5.69867188 1.70929687 6.05859375 2.58984375 C6.51363281 3.69457031 6.96867187 4.79929687 7.4375 5.9375 C8.11619141 7.59072266 8.11619141 7.59072266 8.80859375 9.27734375 C9.74424608 11.86568916 9.74424608 11.86568916 11 13 C11.30292969 12.14535156 11.60585938 11.29070313 11.91796875 10.41015625 C12.33691406 9.30542969 12.75585938 8.20070313 13.1875 7.0625 C13.59355469 5.96035156 13.99960937 4.85820312 14.41796875 3.72265625 C16 1 16 1 18.67578125 0.12109375 C19.82626953 0.06115234 19.82626953 0.06115234 21 0 C18.41874331 8.17397951 15.22988119 16.06640834 12 24 C11.01 24 10.02 24 9 24 C7.4943349 20.37732706 5.99643454 16.75149451 4.5 13.125 C4.07074219 12.09246094 3.64148438 11.05992188 3.19921875 9.99609375 C2.79316406 9.00996094 2.38710938 8.02382813 1.96875 7.0078125 C1.59169922 6.09660645 1.21464844 5.18540039 0.82617188 4.24658203 C0 2 0 2 0 0 Z " fill="#FAF8F9" transform="translate(14,20)"/>
<path d="M0 0 C0.66 0.33 1.32 0.66 2 1 C-1.3 9.25 -4.6 17.5 -8 26 C-6.68 25.67 -5.36 25.34 -4 25 C-2.6418784 22.69558836 -2.6418784 22.69558836 -1.75 19.9375 C-1.41484375 19.01839844 -1.0796875 18.09929688 -0.734375 17.15234375 C-0.49203125 16.44207031 -0.2496875 15.73179688 0 15 C3.3 15 6.6 15 10 15 C10 15.33 10 15.66 10 16 C8.14375 15.9690625 8.14375 15.9690625 6.25 15.9375 C4.02004523 16.09133353 4.02004523 16.09133353 2 17 C0.49833481 19.22211728 -0.34121185 21.33913544 -1.2109375 23.87109375 C-2 26 -2 26 -4 28 C-7.54804256 28.46278816 -9.31183857 28.49700548 -12.25 26.375 C-14.28447241 23.61393031 -15.23444464 21.34060522 -16 18 C-15.67 16.68 -15.34 15.36 -15 14 C-13.68 17.3 -12.36 20.6 -11 24 C-8.73493536 21.73493536 -8.02732087 19.95362617 -6.8359375 16.9921875 C-6.43632812 16.00605469 -6.03671875 15.01992188 -5.625 14.00390625 C-5.2125 12.97136719 -4.8 11.93882813 -4.375 10.875 C-3.95476563 9.83472656 -3.53453125 8.79445313 -3.1015625 7.72265625 C-2.06315283 5.1502323 -1.02951208 2.57599489 0 0 Z " fill="#784364" transform="translate(35,20)"/>
<path d="M0 0 C6.27 0 12.54 0 19 0 C19 0.66 19 1.32 19 2 C19.639375 2.28875 20.27875 2.5775 20.9375 2.875 C23 4 23 4 24 6 C24.3766611 10.99075957 24.2559643 14.10319978 21 18 C18.28002779 18.70451739 16.06703188 19.09903021 13.3125 19.3125 C12.61060547 19.38533203 11.90871094 19.45816406 11.18554688 19.53320312 C9.45900733 19.70938063 7.72964138 19.85745883 6 20 C6.33 19.34 6.66 18.68 7 18 C9.14453125 17.5078125 9.14453125 17.5078125 11.8125 17.125 C15.0123622 16.5244528 16.90025483 16.06263069 19.6875 14.3125 C21.30590401 11.91758847 21.30590401 11.91758847 20.9375 8.375 C20.3249155 4.74483076 20.3249155 4.74483076 17 3 C14.23344676 2.85754103 11.57346694 2.81230555 8.8125 2.875 C7.68811523 2.88853516 7.68811523 2.88853516 6.54101562 2.90234375 C4.69387346 2.92587422 2.84689588 2.96174439 1 3 C0.34 4.65 -0.32 6.3 -1 8 C-1.33 8 -1.66 8 -2 8 C-2 6.02 -2 4.04 -2 2 C-1.34 2 -0.68 2 0 2 C0 1.34 0 0.68 0 0 Z " fill="#631F46" transform="translate(30,18)"/>
<path d="M0 0 C3.29627113 1.97776268 4.12764332 3.96076434 5.5 7.5 C5.5 8.49 5.5 9.48 5.5 10.5 C6.82 9.84 8.14 9.18 9.5 8.5 C8.90138258 10.85171131 8.23075648 13.1859378 7.5 15.5 C6.84 15.83 6.18 16.16 5.5 16.5 C4.65973604 14.73244474 3.82801278 12.96082737 3 11.1875 C2.5359375 10.20136719 2.071875 9.21523438 1.59375 8.19921875 C0.5 5.5 0.5 5.5 0.5 2.5 C-1.15 2.5 -2.8 2.5 -4.5 2.5 C-4.1390625 3.27085938 -3.778125 4.04171875 -3.40625 4.8359375 C-2.9421875 5.83882812 -2.478125 6.84171875 -2 7.875 C-1.5359375 8.87273438 -1.071875 9.87046875 -0.59375 10.8984375 C0.5 13.5 0.5 13.5 0.5 15.5 C-2.5 14.5 -2.5 14.5 -4.1875 11.3125 C-5.49771183 7.94338388 -6.00706145 5.1339404 -5.5 1.5 C-2.5 -0.5 -2.5 -0.5 0 0 Z " fill="#661431" transform="translate(18.5,17.5)"/>
<path d="M0 0 C6.96607687 1.18571521 11.35269579 4.76311242 16 10 C21.32043531 18.07738815 21.32043531 18.07738815 20.6171875 22.296875 C20.41351563 22.85890625 20.20984375 23.4209375 20 24 C19.34 24 18.68 24 18 24 C17.86464844 23.443125 17.72929688 22.88625 17.58984375 22.3125 C15.57545464 15.17167155 12.18267142 9.59588873 5.765625 5.61328125 C3.88234238 4.66162248 1.94471787 3.81882858 0 3 C0 2.01 0 1.02 0 0 Z " fill="#7B013D" transform="translate(40,3)"/>
<path d="M0 0 C0.33 0 0.66 0 1 0 C1.08636719 0.7734375 1.17273438 1.546875 1.26171875 2.34375 C2.42916575 10.99785256 4.4714121 17.15739501 11.1875 22.9375 C13.78061354 24.9604303 13.78061354 24.9604303 16 26 C16 26.99 16 27.98 16 29 C9.14646037 26.92316981 4.50393696 22.43465652 1 16.3125 C-1.60375096 10.74030332 -1.13717334 5.92230868 0 0 Z " fill="#790145" transform="translate(4,29)"/>
<path d="M0 0 C5.75 -0.125 5.75 -0.125 8 1 C8.042721 2.66611905 8.04063832 4.33382885 8 6 C7 7 7 7 4.93359375 7.09765625 C4.10988281 7.08605469 3.28617188 7.07445312 2.4375 7.0625 C1.61121094 7.05347656 0.78492188 7.04445313 -0.06640625 7.03515625 C-0.70449219 7.02355469 -1.34257813 7.01195312 -2 7 C-1.34 4.69 -0.68 2.38 0 0 Z " fill="#7D4A68" transform="translate(39,24)"/>
<path d="M0 0 C0.66 0.33 1.32 0.66 2 1 C1.47462276 6.0302076 0.89405214 11.01885239 0 16 C-0.66 16 -1.32 16 -2 16 C-2.20674944 10.21101581 -1.59162079 5.57067277 0 0 Z " fill="#88002D" transform="translate(4,19)"/>
<path d="M0 0 C2.72168665 3.17530109 4.85559053 5.94254825 6 10 C5.625 12.3125 5.625 12.3125 5 14 C4.34 14 3.68 14 3 14 C1.66666667 10 0.33333333 6 -1 2 C-0.67 1.34 -0.34 0.68 0 0 Z " fill="#6B0150" transform="translate(55,13)"/>
<path d="M0 0 C4.62 0.66 9.24 1.32 14 2 C10.02033543 3.98983228 9.32324868 4.22400716 5.25 3.625 C4.45078125 3.51414063 3.6515625 3.40328125 2.828125 3.2890625 C2.22484375 3.19367187 1.6215625 3.09828125 1 3 C0.67 2.01 0.34 1.02 0 0 Z " fill="#89016D" transform="translate(20,56)"/>
<path d="M0 0 C0.99 0.33 1.98 0.66 3 1 C3.67939174 2.99571323 4.34561559 4.99594773 5 7 C5.99 7.66 6.98 8.32 8 9 C7.01 9.99 6.02 10.98 5 12 C3.35 8.04 1.7 4.08 0 0 Z " fill="#7E4059" transform="translate(19,22)"/>
<path d="M0 0 C0.33 0 0.66 0 1 0 C1.66 4.29 2.32 8.58 3 13 C1.68 12.34 0.36 11.68 -1 11 C-0.67 7.37 -0.34 3.74 0 0 Z " fill="#A30146" transform="translate(4,29)"/>
<path d="M0 0 C2.22825644 2.22825644 2.69239369 3.65761628 3.625 6.625 C4.01558594 7.85089844 4.01558594 7.85089844 4.4140625 9.1015625 C4.60742188 9.72804688 4.80078125 10.35453125 5 11 C4.01 10.67 3.02 10.34 2 10 C0.47839986 6.3962102 0 3.94779314 0 0 Z " fill="#742D47" transform="translate(14,22)"/>
<path d="M0 0 C2.22825644 2.22825644 2.69239369 3.65761628 3.625 6.625 C4.01558594 7.85089844 4.01558594 7.85089844 4.4140625 9.1015625 C4.60742188 9.72804688 4.80078125 10.35453125 5 11 C4.01 10.67 3.02 10.34 2 10 C0.47839986 6.3962102 0 3.94779314 0 0 Z " fill="#6A2849" transform="translate(19,34)"/>
<path d="M0 0 C1.65 0 3.3 0 5 0 C5 1.32 5 2.64 5 4 C3.35 4 1.7 4 0 4 C0 2.68 0 1.36 0 0 Z " fill="#5A163E" transform="translate(40,26)"/>
<path d="M0 0 C1.9375 0.75 1.9375 0.75 4 2 C4.75 4.125 4.75 4.125 5 6 C1.83884224 4.63016497 1.0072908 4.0109362 -1 1 C-0.67 0.67 -0.34 0.34 0 0 Z " fill="#7F024E" transform="translate(50,9)"/>
<path d="M0 0 C1.98 0.99 3.96 1.98 6 3 C6 3.99 6 4.98 6 6 C2.34683329 4.75023244 1.21934164 4.32901247 -1 1 C-0.67 0.67 -0.34 0.34 0 0 Z " fill="#830156" transform="translate(14,52)"/>
</svg>
